<?xml version="1.0" standalone="no"?>
<!DOCTYPE svg PUBLIC "-//W3C//DTD SVG 20010904//EN"
 "http://www.w3.org/TR/2001/REC-SVG-20010904/DTD/svg10.dtd">
<svg version="1.0" xmlns="http://www.w3.org/2000/svg"
 width="512.000000pt" height="512.000000pt" viewBox="0 0 512.000000 512.000000"
 preserveAspectRatio="xMidYMid meet">
<metadata>
Created by potrace 1.14, written by Peter Selinger 2001-2017
</metadata>
<g transform="translate(0.000000,512.000000) scale(0.100000,-0.100000)"
fill="#000000" stroke="none">
<path d="M2378 5115 c-2 -1 -34 -5 -73 -8 -326 -28 -713 -152 -1018 -326 -21
-12 -43 -18 -49 -15 -7 4 -8 2 -4 -4 7 -11 -46 -45 -58 -37 -3 3 -4 2 -1 -2 7
-9 -106 -83 -117 -77 -5 3 -7 1 -6 -4 2 -5 -33 -37 -77 -72 -44 -35 -88 -71
-98 -82 -10 -10 -23 -16 -28 -12 -5 3 -8 1 -7 -4 4 -14 -169 -182 -178 -174
-4 4 -5 2 -1 -3 3 -6 -14 -33 -39 -59 -24 -27 -44 -50 -44 -52 0 -2 -8 -13
-17 -23 -23 -25 -30 -34 -77 -101 -22 -30 -43 -56 -48 -58 -4 -2 -8 -8 -8 -14
0 -5 -17 -35 -37 -66 -152 -229 -298 -598 -347 -882 -31 -176 -39 -263 -40
-450 -1 -272 11 -391 65 -625 50 -217 153 -479 267 -677 12 -21 18 -38 14 -38
-4 0 -2 -4 4 -8 6 -4 41 -51 77 -105 77 -112 160 -220 230 -294 30 -32 46 -57
41 -64 -4 -8 -3 -9 4 -5 7 4 28 -9 50 -31 98 -99 237 -213 379 -310 56 -39 99
-74 95 -78 -4 -5 -1 -5 6 -1 7 4 27 -2 45 -12 177 -109 503 -235 727 -281 206
-43 297 -53 515 -56 323 -4 556 32 851 130 310 104 589 262 853 484 63 53 233
222 276 275 17 21 38 47 48 59 134 159 293 429 378 642 61 154 125 371 143
485 3 19 8 44 10 55 2 12 7 48 11 80 4 33 10 69 12 80 2 11 6 112 7 225 4 255
-8 368 -69 654 -39 180 -155 464 -277 678 -33 58 -139 216 -169 253 -165 199
-225 265 -340 365 -125 111 -326 260 -349 260 -6 0 -10 5 -10 10 0 6 -4 10 -8
10 -5 0 -44 20 -86 44 -200 114 -495 225 -717 270 -172 35 -301 48 -501 51
-113 2 -208 2 -210 0z m727 -1569 c36 -24 43 -68 50 -326 3 -129 8 -271 9
-315 2 -44 7 -197 11 -340 4 -143 8 -271 9 -285 1 -14 -3 -31 -8 -39 -8 -11
-8 -13 0 -8 8 4 11 -3 11 -21 0 -15 3 -133 8 -262 11 -317 11 -324 -11 -354
-30 -42 -85 -51 -134 -24 -28 15 -57 55 -138 188 -56 93 -102 174 -102 179 0
5 -4 11 -8 13 -5 2 -89 138 -189 303 -99 165 -231 383 -293 485 -63 102 -121
199 -130 215 -20 37 -69 115 -73 115 -1 0 -2 -321 -2 -712 0 -667 -1 -715 -18
-749 -34 -69 -141 -70 -177 -2 -16 30 -17 104 -16 985 l1 953 61 3 c67 4 84
-6 115 -65 8 -15 56 -96 106 -180 51 -84 90 -153 86 -153 -4 0 2 -7 13 -15 10
-8 15 -15 10 -15 -5 0 -2 -8 6 -17 14 -16 202 -322 232 -378 6 -12 81 -136
166 -278 85 -142 166 -277 180 -301 60 -103 55 -155 55 627 0 781 -2 751 59
781 35 18 76 15 111 -8z"/>
</g>
</svg>
